<mxfile host="Electron" modified="2023-11-27T20:55:14.897Z" agent="Mozilla/5.0 (Windows NT 10.0; Win64; x64) AppleWebKit/537.36 (KHTML, like Gecko) draw.io/22.1.2 Chrome/114.0.5735.289 Electron/25.9.4 Safari/537.36" etag="ba9uwZK8ZgMlCT6UYeZJ" version="22.1.2" type="device">
  <diagram id="R2lEEEUBdFMjLlhIrx00" name="Page-1">
    <mxGraphModel dx="2150" dy="1035" grid="1" gridSize="10" guides="1" tooltips="1" connect="1" arrows="1" fold="1" page="1" pageScale="1" pageWidth="850" pageHeight="1100" math="0" shadow="0" extFonts="Permanent Marker^https://fonts.googleapis.com/css?family=Permanent+Marker">
      <root>
        <mxCell id="0" />
        <mxCell id="1" parent="0" />
        <mxCell id="PvSjq2wxS5PzxvtU70YR-33" style="edgeStyle=orthogonalEdgeStyle;rounded=0;orthogonalLoop=1;jettySize=auto;html=1;exitX=0.5;exitY=1;exitDx=0;exitDy=0;entryX=0;entryY=0.5;entryDx=0;entryDy=0;" parent="1" source="PvSjq2wxS5PzxvtU70YR-1" target="PvSjq2wxS5PzxvtU70YR-2" edge="1">
          <mxGeometry relative="1" as="geometry" />
        </mxCell>
        <mxCell id="PvSjq2wxS5PzxvtU70YR-1" value="USER" style="rounded=0;whiteSpace=wrap;html=1;" parent="1" vertex="1">
          <mxGeometry x="420" y="160" width="120" height="60" as="geometry" />
        </mxCell>
        <mxCell id="PvSjq2wxS5PzxvtU70YR-30" style="edgeStyle=orthogonalEdgeStyle;rounded=0;orthogonalLoop=1;jettySize=auto;html=1;exitX=0.5;exitY=0;exitDx=0;exitDy=0;" parent="1" source="PvSjq2wxS5PzxvtU70YR-2" target="PvSjq2wxS5PzxvtU70YR-4" edge="1">
          <mxGeometry relative="1" as="geometry" />
        </mxCell>
        <mxCell id="IdFcp6JuMxYRpJithxiR-1" style="edgeStyle=orthogonalEdgeStyle;rounded=0;orthogonalLoop=1;jettySize=auto;html=1;exitX=0.5;exitY=1;exitDx=0;exitDy=0;entryX=1;entryY=0.5;entryDx=0;entryDy=0;" edge="1" parent="1" source="PvSjq2wxS5PzxvtU70YR-2" target="PvSjq2wxS5PzxvtU70YR-3">
          <mxGeometry relative="1" as="geometry" />
        </mxCell>
        <mxCell id="PvSjq2wxS5PzxvtU70YR-2" value="IS&lt;br&gt;A" style="triangle;whiteSpace=wrap;html=1;rotation=90;" parent="1" vertex="1">
          <mxGeometry x="530" y="280" width="40" height="50" as="geometry" />
        </mxCell>
        <mxCell id="PvSjq2wxS5PzxvtU70YR-3" value="CUSTOMER" style="rounded=0;whiteSpace=wrap;html=1;" parent="1" vertex="1">
          <mxGeometry x="350" y="275" width="120" height="60" as="geometry" />
        </mxCell>
        <mxCell id="PvSjq2wxS5PzxvtU70YR-4" value="EMPLOYEE" style="rounded=0;whiteSpace=wrap;html=1;" parent="1" vertex="1">
          <mxGeometry x="660" y="210" width="120" height="60" as="geometry" />
        </mxCell>
        <mxCell id="PvSjq2wxS5PzxvtU70YR-21" style="edgeStyle=orthogonalEdgeStyle;rounded=0;orthogonalLoop=1;jettySize=auto;html=1;exitX=1;exitY=0.5;exitDx=0;exitDy=0;entryX=0;entryY=0.5;entryDx=0;entryDy=0;" parent="1" source="PvSjq2wxS5PzxvtU70YR-5" target="PvSjq2wxS5PzxvtU70YR-8" edge="1">
          <mxGeometry relative="1" as="geometry" />
        </mxCell>
        <mxCell id="IdFcp6JuMxYRpJithxiR-41" style="edgeStyle=orthogonalEdgeStyle;rounded=0;orthogonalLoop=1;jettySize=auto;html=1;exitX=0.5;exitY=0;exitDx=0;exitDy=0;entryX=0.5;entryY=1;entryDx=0;entryDy=0;" edge="1" parent="1" source="PvSjq2wxS5PzxvtU70YR-5" target="PvSjq2wxS5PzxvtU70YR-6">
          <mxGeometry relative="1" as="geometry" />
        </mxCell>
        <mxCell id="PvSjq2wxS5PzxvtU70YR-5" value="has" style="rhombus;whiteSpace=wrap;html=1;" parent="1" vertex="1">
          <mxGeometry x="360" y="750" width="50" height="50" as="geometry" />
        </mxCell>
        <mxCell id="PvSjq2wxS5PzxvtU70YR-6" value="ORDER" style="rounded=0;whiteSpace=wrap;html=1;" parent="1" vertex="1">
          <mxGeometry x="410" y="510" width="120" height="60" as="geometry" />
        </mxCell>
        <mxCell id="PvSjq2wxS5PzxvtU70YR-7" value="PRODUCT" style="rounded=0;whiteSpace=wrap;html=1;" parent="1" vertex="1">
          <mxGeometry x="500" y="705" width="120" height="60" as="geometry" />
        </mxCell>
        <mxCell id="PvSjq2wxS5PzxvtU70YR-8" value="ORDERSTATUS" style="rounded=0;whiteSpace=wrap;html=1;" parent="1" vertex="1">
          <mxGeometry x="490" y="860" width="120" height="60" as="geometry" />
        </mxCell>
        <mxCell id="IdFcp6JuMxYRpJithxiR-2" style="edgeStyle=orthogonalEdgeStyle;rounded=0;orthogonalLoop=1;jettySize=auto;html=1;exitX=0.5;exitY=0;exitDx=0;exitDy=0;entryX=0.5;entryY=1;entryDx=0;entryDy=0;" edge="1" parent="1" source="PvSjq2wxS5PzxvtU70YR-10" target="PvSjq2wxS5PzxvtU70YR-3">
          <mxGeometry relative="1" as="geometry" />
        </mxCell>
        <mxCell id="IdFcp6JuMxYRpJithxiR-10" style="edgeStyle=orthogonalEdgeStyle;rounded=0;orthogonalLoop=1;jettySize=auto;html=1;exitX=0.5;exitY=1;exitDx=0;exitDy=0;entryX=0.75;entryY=0;entryDx=0;entryDy=0;" edge="1" parent="1" source="PvSjq2wxS5PzxvtU70YR-10" target="PvSjq2wxS5PzxvtU70YR-6">
          <mxGeometry relative="1" as="geometry" />
        </mxCell>
        <mxCell id="PvSjq2wxS5PzxvtU70YR-10" value="can" style="rhombus;whiteSpace=wrap;html=1;" parent="1" vertex="1">
          <mxGeometry x="535" y="390" width="50" height="50" as="geometry" />
        </mxCell>
        <mxCell id="PvSjq2wxS5PzxvtU70YR-11" value="PROMOCODE" style="rounded=0;whiteSpace=wrap;html=1;strokeColor=default;dashed=1;dashPattern=1 2;" parent="1" vertex="1">
          <mxGeometry x="40" y="860" width="120" height="60" as="geometry" />
        </mxCell>
        <mxCell id="PvSjq2wxS5PzxvtU70YR-16" style="edgeStyle=orthogonalEdgeStyle;rounded=0;orthogonalLoop=1;jettySize=auto;html=1;exitX=0.5;exitY=1;exitDx=0;exitDy=0;entryX=0.5;entryY=0;entryDx=0;entryDy=0;" parent="1" source="PvSjq2wxS5PzxvtU70YR-12" target="PvSjq2wxS5PzxvtU70YR-11" edge="1">
          <mxGeometry relative="1" as="geometry" />
        </mxCell>
        <mxCell id="IdFcp6JuMxYRpJithxiR-42" style="edgeStyle=orthogonalEdgeStyle;rounded=0;orthogonalLoop=1;jettySize=auto;html=1;exitX=1;exitY=0.5;exitDx=0;exitDy=0;entryX=0;entryY=0.5;entryDx=0;entryDy=0;" edge="1" parent="1" source="PvSjq2wxS5PzxvtU70YR-12" target="PvSjq2wxS5PzxvtU70YR-6">
          <mxGeometry relative="1" as="geometry" />
        </mxCell>
        <mxCell id="PvSjq2wxS5PzxvtU70YR-12" value="can be" style="rhombus;whiteSpace=wrap;html=1;dashed=1;dashPattern=1 4;" parent="1" vertex="1">
          <mxGeometry x="180" y="770" width="50" height="50" as="geometry" />
        </mxCell>
        <mxCell id="IdFcp6JuMxYRpJithxiR-6" style="edgeStyle=orthogonalEdgeStyle;rounded=0;orthogonalLoop=1;jettySize=auto;html=1;exitX=0;exitY=0.5;exitDx=0;exitDy=0;entryX=1;entryY=0.5;entryDx=0;entryDy=0;" edge="1" parent="1" source="PvSjq2wxS5PzxvtU70YR-24" target="PvSjq2wxS5PzxvtU70YR-6">
          <mxGeometry relative="1" as="geometry" />
        </mxCell>
        <mxCell id="IdFcp6JuMxYRpJithxiR-38" style="edgeStyle=orthogonalEdgeStyle;rounded=0;orthogonalLoop=1;jettySize=auto;html=1;exitX=0.5;exitY=1;exitDx=0;exitDy=0;entryX=0.5;entryY=0;entryDx=0;entryDy=0;" edge="1" parent="1" source="PvSjq2wxS5PzxvtU70YR-24" target="PvSjq2wxS5PzxvtU70YR-7">
          <mxGeometry relative="1" as="geometry" />
        </mxCell>
        <mxCell id="PvSjq2wxS5PzxvtU70YR-24" value="contains" style="rhombus;whiteSpace=wrap;html=1;" parent="1" vertex="1">
          <mxGeometry x="550" y="610" width="50" height="50" as="geometry" />
        </mxCell>
        <mxCell id="PvSjq2wxS5PzxvtU70YR-82" style="edgeStyle=orthogonalEdgeStyle;rounded=0;orthogonalLoop=1;jettySize=auto;html=1;exitX=0.5;exitY=1;exitDx=0;exitDy=0;" parent="1" source="PvSjq2wxS5PzxvtU70YR-37" edge="1">
          <mxGeometry relative="1" as="geometry">
            <mxPoint x="480" y="160" as="targetPoint" />
          </mxGeometry>
        </mxCell>
        <mxCell id="PvSjq2wxS5PzxvtU70YR-37" value="Phone#" style="ellipse;whiteSpace=wrap;html=1;" parent="1" vertex="1">
          <mxGeometry x="600" y="20" width="140" height="30" as="geometry" />
        </mxCell>
        <mxCell id="PvSjq2wxS5PzxvtU70YR-83" style="edgeStyle=orthogonalEdgeStyle;rounded=0;orthogonalLoop=1;jettySize=auto;html=1;exitX=0;exitY=0.5;exitDx=0;exitDy=0;" parent="1" source="PvSjq2wxS5PzxvtU70YR-44" edge="1">
          <mxGeometry relative="1" as="geometry">
            <mxPoint x="480" y="160" as="targetPoint" />
          </mxGeometry>
        </mxCell>
        <mxCell id="PvSjq2wxS5PzxvtU70YR-44" value="First Name" style="ellipse;whiteSpace=wrap;html=1;" parent="1" vertex="1">
          <mxGeometry x="680" y="70" width="140" height="30" as="geometry" />
        </mxCell>
        <mxCell id="PvSjq2wxS5PzxvtU70YR-84" style="edgeStyle=orthogonalEdgeStyle;rounded=0;orthogonalLoop=1;jettySize=auto;html=1;exitX=0;exitY=0.5;exitDx=0;exitDy=0;" parent="1" source="PvSjq2wxS5PzxvtU70YR-45" edge="1">
          <mxGeometry relative="1" as="geometry">
            <mxPoint x="480" y="160" as="targetPoint" />
          </mxGeometry>
        </mxCell>
        <mxCell id="PvSjq2wxS5PzxvtU70YR-45" value="Last Name" style="ellipse;whiteSpace=wrap;html=1;" parent="1" vertex="1">
          <mxGeometry x="680" y="120" width="140" height="30" as="geometry" />
        </mxCell>
        <mxCell id="PvSjq2wxS5PzxvtU70YR-78" style="edgeStyle=orthogonalEdgeStyle;rounded=0;orthogonalLoop=1;jettySize=auto;html=1;exitX=1;exitY=0.5;exitDx=0;exitDy=0;" parent="1" source="PvSjq2wxS5PzxvtU70YR-46" target="PvSjq2wxS5PzxvtU70YR-1" edge="1">
          <mxGeometry relative="1" as="geometry" />
        </mxCell>
        <mxCell id="PvSjq2wxS5PzxvtU70YR-46" value="UserID" style="ellipse;whiteSpace=wrap;html=1;" parent="1" vertex="1">
          <mxGeometry x="120" y="120" width="140" height="30" as="geometry" />
        </mxCell>
        <mxCell id="PvSjq2wxS5PzxvtU70YR-81" style="edgeStyle=orthogonalEdgeStyle;rounded=0;orthogonalLoop=1;jettySize=auto;html=1;exitX=0.5;exitY=1;exitDx=0;exitDy=0;" parent="1" source="PvSjq2wxS5PzxvtU70YR-47" edge="1">
          <mxGeometry relative="1" as="geometry">
            <mxPoint x="480" y="160" as="targetPoint" />
          </mxGeometry>
        </mxCell>
        <mxCell id="PvSjq2wxS5PzxvtU70YR-47" value="Email" style="ellipse;whiteSpace=wrap;html=1;" parent="1" vertex="1">
          <mxGeometry x="420" y="20" width="140" height="30" as="geometry" />
        </mxCell>
        <mxCell id="PvSjq2wxS5PzxvtU70YR-80" style="edgeStyle=orthogonalEdgeStyle;rounded=0;orthogonalLoop=1;jettySize=auto;html=1;exitX=0.5;exitY=1;exitDx=0;exitDy=0;" parent="1" source="PvSjq2wxS5PzxvtU70YR-48" edge="1">
          <mxGeometry relative="1" as="geometry">
            <mxPoint x="480" y="160" as="targetPoint" />
          </mxGeometry>
        </mxCell>
        <mxCell id="PvSjq2wxS5PzxvtU70YR-48" value="Password" style="ellipse;whiteSpace=wrap;html=1;" parent="1" vertex="1">
          <mxGeometry x="260" y="20" width="140" height="30" as="geometry" />
        </mxCell>
        <mxCell id="PvSjq2wxS5PzxvtU70YR-79" style="edgeStyle=orthogonalEdgeStyle;rounded=0;orthogonalLoop=1;jettySize=auto;html=1;exitX=1;exitY=0.5;exitDx=0;exitDy=0;" parent="1" source="PvSjq2wxS5PzxvtU70YR-49" edge="1">
          <mxGeometry relative="1" as="geometry">
            <mxPoint x="480" y="160" as="targetPoint" />
          </mxGeometry>
        </mxCell>
        <mxCell id="PvSjq2wxS5PzxvtU70YR-49" value="Address" style="ellipse;whiteSpace=wrap;html=1;" parent="1" vertex="1">
          <mxGeometry x="120" y="70" width="140" height="30" as="geometry" />
        </mxCell>
        <mxCell id="PvSjq2wxS5PzxvtU70YR-85" style="edgeStyle=orthogonalEdgeStyle;rounded=0;orthogonalLoop=1;jettySize=auto;html=1;exitX=1;exitY=0.5;exitDx=0;exitDy=0;entryX=0;entryY=0;entryDx=0;entryDy=0;" parent="1" source="PvSjq2wxS5PzxvtU70YR-56" target="PvSjq2wxS5PzxvtU70YR-6" edge="1">
          <mxGeometry relative="1" as="geometry" />
        </mxCell>
        <mxCell id="PvSjq2wxS5PzxvtU70YR-56" value="OrderID" style="ellipse;whiteSpace=wrap;html=1;" parent="1" vertex="1">
          <mxGeometry x="10" y="460" width="140" height="30" as="geometry" />
        </mxCell>
        <mxCell id="PvSjq2wxS5PzxvtU70YR-89" style="edgeStyle=orthogonalEdgeStyle;rounded=0;orthogonalLoop=1;jettySize=auto;html=1;exitX=1;exitY=0.5;exitDx=0;exitDy=0;entryX=0;entryY=0;entryDx=0;entryDy=0;" parent="1" source="PvSjq2wxS5PzxvtU70YR-58" target="PvSjq2wxS5PzxvtU70YR-6" edge="1">
          <mxGeometry relative="1" as="geometry" />
        </mxCell>
        <mxCell id="PvSjq2wxS5PzxvtU70YR-58" value="OrderDate" style="ellipse;whiteSpace=wrap;html=1;" parent="1" vertex="1">
          <mxGeometry x="10" y="540" width="140" height="30" as="geometry" />
        </mxCell>
        <mxCell id="PvSjq2wxS5PzxvtU70YR-90" style="edgeStyle=orthogonalEdgeStyle;rounded=0;orthogonalLoop=1;jettySize=auto;html=1;exitX=1;exitY=0.5;exitDx=0;exitDy=0;entryX=0;entryY=0;entryDx=0;entryDy=0;" parent="1" source="PvSjq2wxS5PzxvtU70YR-59" target="PvSjq2wxS5PzxvtU70YR-6" edge="1">
          <mxGeometry relative="1" as="geometry" />
        </mxCell>
        <mxCell id="PvSjq2wxS5PzxvtU70YR-59" value="Status" style="ellipse;whiteSpace=wrap;html=1;" parent="1" vertex="1">
          <mxGeometry x="10" y="580" width="140" height="30" as="geometry" />
        </mxCell>
        <mxCell id="PvSjq2wxS5PzxvtU70YR-91" style="edgeStyle=orthogonalEdgeStyle;rounded=0;orthogonalLoop=1;jettySize=auto;html=1;exitX=1;exitY=0.5;exitDx=0;exitDy=0;entryX=0;entryY=0;entryDx=0;entryDy=0;" parent="1" source="PvSjq2wxS5PzxvtU70YR-60" target="PvSjq2wxS5PzxvtU70YR-6" edge="1">
          <mxGeometry relative="1" as="geometry" />
        </mxCell>
        <mxCell id="PvSjq2wxS5PzxvtU70YR-60" value="TotalAmount" style="ellipse;whiteSpace=wrap;html=1;" parent="1" vertex="1">
          <mxGeometry x="10" y="620" width="140" height="30" as="geometry" />
        </mxCell>
        <mxCell id="PvSjq2wxS5PzxvtU70YR-94" style="edgeStyle=orthogonalEdgeStyle;rounded=0;orthogonalLoop=1;jettySize=auto;html=1;exitX=1;exitY=0.5;exitDx=0;exitDy=0;entryX=0;entryY=0;entryDx=0;entryDy=0;" parent="1" source="PvSjq2wxS5PzxvtU70YR-62" target="PvSjq2wxS5PzxvtU70YR-6" edge="1">
          <mxGeometry relative="1" as="geometry">
            <Array as="points">
              <mxPoint x="200" y="715" />
              <mxPoint x="200" y="490" />
              <mxPoint x="410" y="490" />
            </Array>
          </mxGeometry>
        </mxCell>
        <mxCell id="PvSjq2wxS5PzxvtU70YR-62" value="Quantity" style="ellipse;whiteSpace=wrap;html=1;" parent="1" vertex="1">
          <mxGeometry x="10" y="700" width="140" height="30" as="geometry" />
        </mxCell>
        <mxCell id="PvSjq2wxS5PzxvtU70YR-95" style="edgeStyle=orthogonalEdgeStyle;rounded=0;orthogonalLoop=1;jettySize=auto;html=1;exitX=0.5;exitY=0;exitDx=0;exitDy=0;entryX=0.5;entryY=1;entryDx=0;entryDy=0;" parent="1" source="PvSjq2wxS5PzxvtU70YR-63" target="PvSjq2wxS5PzxvtU70YR-11" edge="1">
          <mxGeometry relative="1" as="geometry" />
        </mxCell>
        <mxCell id="PvSjq2wxS5PzxvtU70YR-63" value="PromoCodeID" style="ellipse;whiteSpace=wrap;html=1;" parent="1" vertex="1">
          <mxGeometry x="10" y="1050" width="140" height="30" as="geometry" />
        </mxCell>
        <mxCell id="PvSjq2wxS5PzxvtU70YR-96" style="edgeStyle=orthogonalEdgeStyle;rounded=0;orthogonalLoop=1;jettySize=auto;html=1;exitX=0;exitY=0.5;exitDx=0;exitDy=0;" parent="1" source="PvSjq2wxS5PzxvtU70YR-64" edge="1">
          <mxGeometry relative="1" as="geometry">
            <mxPoint x="100" y="920" as="targetPoint" />
          </mxGeometry>
        </mxCell>
        <mxCell id="PvSjq2wxS5PzxvtU70YR-64" value="ExpiryDate" style="ellipse;whiteSpace=wrap;html=1;" parent="1" vertex="1">
          <mxGeometry x="210" y="920" width="140" height="30" as="geometry" />
        </mxCell>
        <mxCell id="PvSjq2wxS5PzxvtU70YR-97" style="edgeStyle=orthogonalEdgeStyle;rounded=0;orthogonalLoop=1;jettySize=auto;html=1;exitX=0;exitY=0.5;exitDx=0;exitDy=0;entryX=0.5;entryY=1;entryDx=0;entryDy=0;" parent="1" source="PvSjq2wxS5PzxvtU70YR-66" target="PvSjq2wxS5PzxvtU70YR-11" edge="1">
          <mxGeometry relative="1" as="geometry" />
        </mxCell>
        <mxCell id="PvSjq2wxS5PzxvtU70YR-66" value="Discount%" style="ellipse;whiteSpace=wrap;html=1;" parent="1" vertex="1">
          <mxGeometry x="210" y="960" width="140" height="30" as="geometry" />
        </mxCell>
        <mxCell id="PvSjq2wxS5PzxvtU70YR-101" style="edgeStyle=orthogonalEdgeStyle;rounded=0;orthogonalLoop=1;jettySize=auto;html=1;exitX=0;exitY=0.5;exitDx=0;exitDy=0;" parent="1" source="PvSjq2wxS5PzxvtU70YR-68" edge="1">
          <mxGeometry relative="1" as="geometry">
            <mxPoint x="580" y="920" as="targetPoint" />
          </mxGeometry>
        </mxCell>
        <mxCell id="PvSjq2wxS5PzxvtU70YR-68" value="Price" style="ellipse;whiteSpace=wrap;html=1;" parent="1" vertex="1">
          <mxGeometry x="690" y="920" width="140" height="30" as="geometry" />
        </mxCell>
        <mxCell id="PvSjq2wxS5PzxvtU70YR-103" style="edgeStyle=orthogonalEdgeStyle;rounded=0;orthogonalLoop=1;jettySize=auto;html=1;exitX=0;exitY=0.5;exitDx=0;exitDy=0;" parent="1" source="PvSjq2wxS5PzxvtU70YR-69" edge="1">
          <mxGeometry relative="1" as="geometry">
            <mxPoint x="580" y="920" as="targetPoint" />
          </mxGeometry>
        </mxCell>
        <mxCell id="PvSjq2wxS5PzxvtU70YR-69" value="TrackingID" style="ellipse;whiteSpace=wrap;html=1;" parent="1" vertex="1">
          <mxGeometry x="690" y="1010" width="140" height="30" as="geometry" />
        </mxCell>
        <mxCell id="PvSjq2wxS5PzxvtU70YR-102" style="edgeStyle=orthogonalEdgeStyle;rounded=0;orthogonalLoop=1;jettySize=auto;html=1;exitX=0;exitY=0.5;exitDx=0;exitDy=0;" parent="1" source="PvSjq2wxS5PzxvtU70YR-70" edge="1">
          <mxGeometry relative="1" as="geometry">
            <mxPoint x="580" y="920" as="targetPoint" />
          </mxGeometry>
        </mxCell>
        <mxCell id="PvSjq2wxS5PzxvtU70YR-70" value="Carrier" style="ellipse;whiteSpace=wrap;html=1;" parent="1" vertex="1">
          <mxGeometry x="690" y="960" width="140" height="30" as="geometry" />
        </mxCell>
        <mxCell id="PvSjq2wxS5PzxvtU70YR-72" value="ProductID" style="ellipse;whiteSpace=wrap;html=1;" parent="1" vertex="1">
          <mxGeometry x="710" y="580" width="140" height="30" as="geometry" />
        </mxCell>
        <mxCell id="IdFcp6JuMxYRpJithxiR-3" style="edgeStyle=orthogonalEdgeStyle;rounded=0;orthogonalLoop=1;jettySize=auto;html=1;exitX=0;exitY=0.5;exitDx=0;exitDy=0;entryX=1;entryY=0.5;entryDx=0;entryDy=0;" edge="1" parent="1" source="PvSjq2wxS5PzxvtU70YR-73" target="PvSjq2wxS5PzxvtU70YR-7">
          <mxGeometry relative="1" as="geometry" />
        </mxCell>
        <mxCell id="PvSjq2wxS5PzxvtU70YR-73" value="ProductName" style="ellipse;whiteSpace=wrap;html=1;" parent="1" vertex="1">
          <mxGeometry x="700" y="630" width="140" height="30" as="geometry" />
        </mxCell>
        <mxCell id="PvSjq2wxS5PzxvtU70YR-106" style="edgeStyle=orthogonalEdgeStyle;rounded=0;orthogonalLoop=1;jettySize=auto;html=1;exitX=0;exitY=0.5;exitDx=0;exitDy=0;entryX=1;entryY=0.75;entryDx=0;entryDy=0;" parent="1" source="PvSjq2wxS5PzxvtU70YR-74" target="PvSjq2wxS5PzxvtU70YR-7" edge="1">
          <mxGeometry relative="1" as="geometry" />
        </mxCell>
        <mxCell id="PvSjq2wxS5PzxvtU70YR-74" value="Description" style="ellipse;whiteSpace=wrap;html=1;" parent="1" vertex="1">
          <mxGeometry x="700" y="680" width="140" height="30" as="geometry" />
        </mxCell>
        <mxCell id="IdFcp6JuMxYRpJithxiR-4" style="edgeStyle=orthogonalEdgeStyle;rounded=0;orthogonalLoop=1;jettySize=auto;html=1;exitX=0;exitY=0.5;exitDx=0;exitDy=0;" edge="1" parent="1" source="PvSjq2wxS5PzxvtU70YR-75">
          <mxGeometry relative="1" as="geometry">
            <mxPoint x="620" y="690" as="targetPoint" />
          </mxGeometry>
        </mxCell>
        <mxCell id="PvSjq2wxS5PzxvtU70YR-75" value="Price" style="ellipse;whiteSpace=wrap;html=1;" parent="1" vertex="1">
          <mxGeometry x="690" y="720" width="140" height="30" as="geometry" />
        </mxCell>
        <mxCell id="IdFcp6JuMxYRpJithxiR-5" style="edgeStyle=orthogonalEdgeStyle;rounded=0;orthogonalLoop=1;jettySize=auto;html=1;exitX=0;exitY=0.5;exitDx=0;exitDy=0;" edge="1" parent="1" source="PvSjq2wxS5PzxvtU70YR-76">
          <mxGeometry relative="1" as="geometry">
            <mxPoint x="620" y="700" as="targetPoint" />
          </mxGeometry>
        </mxCell>
        <mxCell id="PvSjq2wxS5PzxvtU70YR-76" value="StockQuantity" style="ellipse;whiteSpace=wrap;html=1;" parent="1" vertex="1">
          <mxGeometry x="680" y="770" width="140" height="30" as="geometry" />
        </mxCell>
        <mxCell id="PvSjq2wxS5PzxvtU70YR-104" style="edgeStyle=orthogonalEdgeStyle;rounded=0;orthogonalLoop=1;jettySize=auto;html=1;exitX=0;exitY=0.5;exitDx=0;exitDy=0;entryX=0.99;entryY=0.606;entryDx=0;entryDy=0;entryPerimeter=0;" parent="1" source="PvSjq2wxS5PzxvtU70YR-72" target="PvSjq2wxS5PzxvtU70YR-7" edge="1">
          <mxGeometry relative="1" as="geometry" />
        </mxCell>
        <mxCell id="IdFcp6JuMxYRpJithxiR-12" style="edgeStyle=orthogonalEdgeStyle;rounded=0;orthogonalLoop=1;jettySize=auto;html=1;exitX=1;exitY=0.5;exitDx=0;exitDy=0;entryX=0.25;entryY=0;entryDx=0;entryDy=0;" edge="1" parent="1" source="IdFcp6JuMxYRpJithxiR-8" target="PvSjq2wxS5PzxvtU70YR-6">
          <mxGeometry relative="1" as="geometry" />
        </mxCell>
        <mxCell id="IdFcp6JuMxYRpJithxiR-46" style="edgeStyle=orthogonalEdgeStyle;rounded=0;orthogonalLoop=1;jettySize=auto;html=1;exitX=0.5;exitY=0;exitDx=0;exitDy=0;entryX=0;entryY=0.5;entryDx=0;entryDy=0;" edge="1" parent="1" source="IdFcp6JuMxYRpJithxiR-8" target="PvSjq2wxS5PzxvtU70YR-3">
          <mxGeometry relative="1" as="geometry" />
        </mxCell>
        <mxCell id="IdFcp6JuMxYRpJithxiR-8" value="gets&lt;br&gt;billed" style="rhombus;whiteSpace=wrap;html=1;" vertex="1" parent="1">
          <mxGeometry x="270" y="380" width="50" height="50" as="geometry" />
        </mxCell>
        <mxCell id="IdFcp6JuMxYRpJithxiR-25" style="edgeStyle=orthogonalEdgeStyle;rounded=0;orthogonalLoop=1;jettySize=auto;html=1;exitX=1;exitY=0.5;exitDx=0;exitDy=0;entryX=0;entryY=0.5;entryDx=0;entryDy=0;" edge="1" parent="1" source="IdFcp6JuMxYRpJithxiR-16" target="IdFcp6JuMxYRpJithxiR-8">
          <mxGeometry relative="1" as="geometry" />
        </mxCell>
        <mxCell id="IdFcp6JuMxYRpJithxiR-16" value="Name" style="ellipse;whiteSpace=wrap;html=1;" vertex="1" parent="1">
          <mxGeometry x="20" y="160" width="140" height="30" as="geometry" />
        </mxCell>
        <mxCell id="IdFcp6JuMxYRpJithxiR-26" style="edgeStyle=orthogonalEdgeStyle;rounded=0;orthogonalLoop=1;jettySize=auto;html=1;exitX=1;exitY=0.5;exitDx=0;exitDy=0;entryX=0;entryY=0.5;entryDx=0;entryDy=0;" edge="1" parent="1" source="IdFcp6JuMxYRpJithxiR-17" target="IdFcp6JuMxYRpJithxiR-8">
          <mxGeometry relative="1" as="geometry" />
        </mxCell>
        <mxCell id="IdFcp6JuMxYRpJithxiR-17" value="card expiration" style="ellipse;whiteSpace=wrap;html=1;" vertex="1" parent="1">
          <mxGeometry x="20" y="240" width="140" height="30" as="geometry" />
        </mxCell>
        <mxCell id="IdFcp6JuMxYRpJithxiR-24" style="edgeStyle=orthogonalEdgeStyle;rounded=0;orthogonalLoop=1;jettySize=auto;html=1;exitX=1;exitY=0.5;exitDx=0;exitDy=0;entryX=0;entryY=0.5;entryDx=0;entryDy=0;" edge="1" parent="1" source="IdFcp6JuMxYRpJithxiR-18" target="IdFcp6JuMxYRpJithxiR-8">
          <mxGeometry relative="1" as="geometry" />
        </mxCell>
        <mxCell id="IdFcp6JuMxYRpJithxiR-18" value="CardNumber" style="ellipse;whiteSpace=wrap;html=1;" vertex="1" parent="1">
          <mxGeometry x="20" y="200" width="140" height="30" as="geometry" />
        </mxCell>
        <mxCell id="IdFcp6JuMxYRpJithxiR-27" style="edgeStyle=orthogonalEdgeStyle;rounded=0;orthogonalLoop=1;jettySize=auto;html=1;exitX=1;exitY=0.5;exitDx=0;exitDy=0;" edge="1" parent="1" source="IdFcp6JuMxYRpJithxiR-19">
          <mxGeometry relative="1" as="geometry">
            <mxPoint x="270" y="410" as="targetPoint" />
          </mxGeometry>
        </mxCell>
        <mxCell id="IdFcp6JuMxYRpJithxiR-19" value="cvv" style="ellipse;whiteSpace=wrap;html=1;" vertex="1" parent="1">
          <mxGeometry x="20" y="275" width="140" height="30" as="geometry" />
        </mxCell>
        <mxCell id="IdFcp6JuMxYRpJithxiR-29" style="edgeStyle=orthogonalEdgeStyle;rounded=0;orthogonalLoop=1;jettySize=auto;html=1;exitX=1;exitY=0.5;exitDx=0;exitDy=0;" edge="1" parent="1" source="IdFcp6JuMxYRpJithxiR-21">
          <mxGeometry relative="1" as="geometry">
            <mxPoint x="270" y="410" as="targetPoint" />
          </mxGeometry>
        </mxCell>
        <mxCell id="IdFcp6JuMxYRpJithxiR-21" value="billing address" style="ellipse;whiteSpace=wrap;html=1;" vertex="1" parent="1">
          <mxGeometry x="20" y="350" width="140" height="30" as="geometry" />
        </mxCell>
        <mxCell id="IdFcp6JuMxYRpJithxiR-31" value="1,1" style="text;html=1;align=center;verticalAlign=middle;resizable=0;points=[];autosize=1;strokeColor=none;fillColor=none;" vertex="1" parent="1">
          <mxGeometry x="120" y="810" width="40" height="30" as="geometry" />
        </mxCell>
        <mxCell id="IdFcp6JuMxYRpJithxiR-32" value="1,1" style="text;html=1;align=center;verticalAlign=middle;resizable=0;points=[];autosize=1;strokeColor=none;fillColor=none;" vertex="1" parent="1">
          <mxGeometry x="340" y="540" width="40" height="30" as="geometry" />
        </mxCell>
        <mxCell id="IdFcp6JuMxYRpJithxiR-33" value="1,1" style="text;html=1;align=center;verticalAlign=middle;resizable=0;points=[];autosize=1;strokeColor=none;fillColor=none;" vertex="1" parent="1">
          <mxGeometry x="555" y="535" width="40" height="30" as="geometry" />
        </mxCell>
        <mxCell id="IdFcp6JuMxYRpJithxiR-34" value="1,1" style="text;html=1;align=center;verticalAlign=middle;resizable=0;points=[];autosize=1;strokeColor=none;fillColor=none;" vertex="1" parent="1">
          <mxGeometry x="425" y="580" width="40" height="30" as="geometry" />
        </mxCell>
        <mxCell id="IdFcp6JuMxYRpJithxiR-35" value="1,1" style="text;html=1;align=center;verticalAlign=middle;resizable=0;points=[];autosize=1;strokeColor=none;fillColor=none;" vertex="1" parent="1">
          <mxGeometry x="450" y="850" width="40" height="30" as="geometry" />
        </mxCell>
        <mxCell id="IdFcp6JuMxYRpJithxiR-36" value="1,1" style="text;html=1;align=center;verticalAlign=middle;resizable=0;points=[];autosize=1;strokeColor=none;fillColor=none;" vertex="1" parent="1">
          <mxGeometry x="385" y="410" width="40" height="30" as="geometry" />
        </mxCell>
        <mxCell id="IdFcp6JuMxYRpJithxiR-37" value="1,1" style="text;html=1;align=center;verticalAlign=middle;resizable=0;points=[];autosize=1;strokeColor=none;fillColor=none;" vertex="1" parent="1">
          <mxGeometry x="300" y="260" width="40" height="30" as="geometry" />
        </mxCell>
        <mxCell id="IdFcp6JuMxYRpJithxiR-43" value="1,M" style="text;html=1;align=center;verticalAlign=middle;resizable=0;points=[];autosize=1;strokeColor=none;fillColor=none;" vertex="1" parent="1">
          <mxGeometry x="425" y="335" width="40" height="30" as="geometry" />
        </mxCell>
        <mxCell id="IdFcp6JuMxYRpJithxiR-44" value="M,M" style="text;html=1;align=center;verticalAlign=middle;resizable=0;points=[];autosize=1;strokeColor=none;fillColor=none;" vertex="1" parent="1">
          <mxGeometry x="500" y="675" width="50" height="30" as="geometry" />
        </mxCell>
        <mxCell id="IdFcp6JuMxYRpJithxiR-45" value="M,M" style="text;html=1;align=center;verticalAlign=middle;resizable=0;points=[];autosize=1;strokeColor=none;fillColor=none;" vertex="1" parent="1">
          <mxGeometry x="500" y="480" width="50" height="30" as="geometry" />
        </mxCell>
        <mxCell id="IdFcp6JuMxYRpJithxiR-48" value="ConfirmationNumber" style="ellipse;whiteSpace=wrap;html=1;" vertex="1" parent="1">
          <mxGeometry x="250" y="830" width="140" height="30" as="geometry" />
        </mxCell>
        <mxCell id="IdFcp6JuMxYRpJithxiR-49" style="edgeStyle=orthogonalEdgeStyle;rounded=0;orthogonalLoop=1;jettySize=auto;html=1;exitX=0.5;exitY=1;exitDx=0;exitDy=0;entryX=0.864;entryY=0.361;entryDx=0;entryDy=0;entryPerimeter=0;" edge="1" parent="1" source="PvSjq2wxS5PzxvtU70YR-5" target="IdFcp6JuMxYRpJithxiR-48">
          <mxGeometry relative="1" as="geometry" />
        </mxCell>
      </root>
    </mxGraphModel>
  </diagram>
</mxfile>
